{
    "asset": {
        "version": "2.0"
    },
    "bufferViews": [
        {
            "buffer": 0,
            "byteLength": 15120,
            "byteOffset": 0
        },
        {
            "buffer": 0,
            "byteLength": 28800,
            "byteOffset": 15120
        },
        {
            "buffer": 0,
            "byteLength": 28800,
            "byteOffset": 43920
        }
    ],
    "accessors": [
        {
            "bufferView": 0,
            "count": 7560,
            "componentType": 5123,
            "type": "SCALAR"
        },
        {
            "bufferView": 1,
            "count": 2400,
            "componentType": 5126,
            "type": "VEC3",
            "min": [
                -1.0,
                -1.0,
                -1.0
            ],
            "max": [
                1.0,
                1.0,
                1.0
            ]
        },
        {
            "bufferView": 2,
            "count": 2400,
            "componentType": 5126,
            "type": "VEC3",
            "min": [
                -0.1354272961616516,
                -0.11590009927749634,
                -0.009226322174072266
            ],
            "max": [
                0.14426609873771667,
                0.11587850004434586,
                0.011846359819173813
            ]
        }
    ],
    "meshes": [
        {
            "primitives": [
                {
                    "indices": 0,
                    "material": 0,
                    "mode": 4,
                    "attributes": {
                        "NORMAL": 1,
                        "POSITION": 2
                    }
                }
            ],
            "name": "extension_base"
        }
    ],
    "nodes": [
        {
            "name": "root",
            "children": [
                1
            ],
            "rotation": [
                -0.7071067812,
                0,
                0,
                0.7071067812
            ]
        },
        {
            "name": "extension_base_link",
            "children": [
                2
            ]
        },
        {
            "name": "extension_base_link/visual0",
            "children": [
                3
            ]
        },
        {
            "name": "Z_UP",
            "children": [
                4
            ]
        },
        {
            "name": "extension_base",
            "mesh": 0
        }
    ],
    "scene": 0,
    "scenes": [
        {
            "nodes": [
                0
            ],
            "name": "robot_extension"
        }
    ],
    "materials": [
        {
            "name": "EP_down_001-effect",
            "pbrMetallicRoughness": {
                "baseColorFactor": [
                    0.0281746294349432,
                    0.02800000086426735,
                    0.0281746294349432,
                    1.0
                ],
                "metallicFactor": 0.0
            },
            "emissiveFactor": [
                0.0,
                0.0,
                0.0
            ]
        }
    ],
    "buffers": [
        {
            "byteLength": 72720,
            "uri": "data:application/octet-stream;base64,"
        }
    ]
}