{
    "asset": {
        "version": "2.0"
    },
    "bufferViews": [
        {
            "buffer": 0,
            "byteLength": 7488,
            "byteOffset": 0
        },
        {
            "buffer": 0,
            "byteLength": 17280,
            "byteOffset": 7488
        },
        {
            "buffer": 0,
            "byteLength": 17280,
            "byteOffset": 24768
        },
        {
            "buffer": 0,
            "byteLength": 17280,
            "byteOffset": 42048
        },
        {
            "buffer": 0,
            "byteLength": 11520,
            "byteOffset": 59328
        },
        {
            "buffer": 0,
            "byteLength": 1656,
            "byteOffset": 70848
        },
        {
            "buffer": 0,
            "byteLength": 4488,
            "byteOffset": 72504
        },
        {
            "buffer": 0,
            "byteLength": 4488,
            "byteOffset": 76992
        },
        {
            "buffer": 0,
            "byteLength": 2992,
            "byteOffset": 81480
        },
        {
            "buffer": 0,
            "byteLength": 1656,
            "byteOffset": 84472
        },
        {
            "buffer": 0,
            "byteLength": 4440,
            "byteOffset": 86128
        },
        {
            "buffer": 0,
            "byteLength": 4440,
            "byteOffset": 90568
        },
        {
            "buffer": 0,
            "byteLength": 2960,
            "byteOffset": 95008
        }
    ],
    "accessors": [
        {
            "bufferView": 0,
            "count": 3744,
            "componentType": 5123,
            "type": "SCALAR"
        },
        {
            "bufferView": 1,
            "count": 1440,
            "componentType": 5126,
            "type": "VEC3",
            "min": [
                1.0,
                1.0,
                1.0
            ],
            "max": [
                1.0,
                1.0,
                1.0
            ]
        },
        {
            "bufferView": 2,
            "count": 1440,
            "componentType": 5126,
            "type": "VEC3",
            "min": [
                -1.0,
                -1.0,
                -0.9999985098838806
            ],
            "max": [
                0.9947094321250916,
                1.0,
                1.0
            ]
        },
        {
            "bufferView": 3,
            "count": 1440,
            "componentType": 5126,
            "type": "VEC3",
            "min": [
                -0.03132069110870361,
                -0.029571589082479477,
                -0.013318649493157864
            ],
            "max": [
                0.07765226811170578,
                0.029531119391322136,
                0.009596227668225765
            ]
        },
        {
            "bufferView": 4,
            "count": 1440,
            "componentType": 5126,
            "type": "VEC2",
            "min": [
                0.01728110946714878,
                0.01035618782043457
            ],
            "max": [
                0.9927893280982971,
                0.9961793422698975
            ]
        },
        {
            "bufferView": 5,
            "count": 828,
            "componentType": 5123,
            "type": "SCALAR"
        },
        {
            "bufferView": 6,
            "count": 374,
            "componentType": 5126,
            "type": "VEC3",
            "min": [
                -0.9999977350234985,
                -1.0,
                -0.9999977350234985
            ],
            "max": [
                0.9999977350234985,
                1.0,
                0.9999977350234985
            ]
        },
        {
            "bufferView": 7,
            "count": 374,
            "componentType": 5126,
            "type": "VEC3",
            "min": [
                -0.005819140933454037,
                -0.0053098201751708984,
                -0.020922889932990074
            ],
            "max": [
                0.005709885619580746,
                0.003681658999994397,
                0.06163584813475609
            ]
        },
        {
            "bufferView": 8,
            "count": 374,
            "componentType": 5126,
            "type": "VEC2",
            "min": [
                0.011660570278763771,
                0.06974756717681885
            ],
            "max": [
                0.8155248165130615,
                0.9861458539962769
            ]
        },
        {
            "bufferView": 9,
            "count": 828,
            "componentType": 5123,
            "type": "SCALAR"
        },
        {
            "bufferView": 10,
            "count": 370,
            "componentType": 5126,
            "type": "VEC3",
            "min": [
                -0.9999977350234985,
                -1.0,
                -0.9999977350234985
            ],
            "max": [
                0.9999977350234985,
                1.0,
                0.9999977350234985
            ]
        },
        {
            "bufferView": 11,
            "count": 370,
            "componentType": 5126,
            "type": "VEC3",
            "min": [
                -0.005817114841192961,
                -0.003671645885333419,
                -0.02183597907423973
            ],
            "max": [
                0.005711853038519621,
                0.0053198328241705894,
                0.06072276085615158
            ]
        },
        {
            "bufferView": 12,
            "count": 370,
            "componentType": 5126,
            "type": "VEC2",
            "min": [
                0.011660570278763771,
                0.06974756717681885
            ],
            "max": [
                0.8155248165130615,
                0.9861458539962769
            ]
        }
    ],
    "meshes": [
        {
            "primitives": [
                {
                    "indices": 0,
                    "material": 0,
                    "mode": 4,
                    "attributes": {
                        "COLOR_0": 1,
                        "NORMAL": 2,
                        "POSITION": 3,
                        "TEXCOORD_0": 4
                    }
                }
            ],
            "name": "intelligent_controller"
        },
        {
            "primitives": [
                {
                    "indices": 5,
                    "material": 1,
                    "mode": 4,
                    "attributes": {
                        "NORMAL": 6,
                        "POSITION": 7,
                        "TEXCOORD_0": 8
                    }
                }
            ],
            "name": "wifi_antenna_left"
        },
        {
            "primitives": [
                {
                    "indices": 9,
                    "material": 2,
                    "mode": 4,
                    "attributes": {
                        "NORMAL": 10,
                        "POSITION": 11,
                        "TEXCOORD_0": 12
                    }
                }
            ],
            "name": "wifi_antenna_right"
        }
    ],
    "nodes": [
        {
            "name": "root",
            "children": [
                1
            ],
            "rotation": [
                -0.7071067812,
                0,
                0,
                0.7071067812
            ]
        },
        {
            "name": "intelligent_controller_link",
            "children": [
                2,
                5,
                8
            ]
        },
        {
            "name": "intelligent_controller_link/visual0",
            "children": [
                3
            ],
            "matrix": [
                1.0,
                0.0,
                -0.0,
                0.0,
                0.0,
                1.0,
                0.0,
                0.0,
                0.0,
                -0.0,
                1.0,
                0.0,
                0.0,
                0.0,
                -0.0095231,
                1.0
            ]
        },
        {
            "name": "Z_UP",
            "children": [
                4
            ]
        },
        {
            "name": "intelligent_controller",
            "mesh": 0
        },
        {
            "name": "intelligent_controller_link/visual0",
            "children": [
                6
            ],
            "matrix": [
                1.0,
                0.0,
                -0.0,
                0.0,
                0.0,
                1.0,
                0.0,
                0.0,
                0.0,
                -0.0,
                1.0,
                0.0,
                -0.0147105,
                0.0344787,
                0.0032872,
                1.0
            ]
        },
        {
            "name": "Z_UP",
            "children": [
                7
            ]
        },
        {
            "name": "wifi_antenna_left",
            "mesh": 1
        },
        {
            "name": "intelligent_controller_link/visual0",
            "children": [
                9
            ],
            "matrix": [
                1.0,
                0.0,
                -0.0,
                0.0,
                0.0,
                1.0,
                0.0,
                0.0,
                0.0,
                -0.0,
                1.0,
                0.0,
                -0.0147125,
                -0.0351398,
                0.0042003,
                1.0
            ]
        },
        {
            "name": "Z_UP",
            "children": [
                10
            ]
        },
        {
            "name": "wifi_antenna_right",
            "mesh": 2
        }
    ],
    "scene": 0,
    "scenes": [
        {
            "nodes": [
                0
            ],
            "name": "robot_intelligent_controller"
        }
    ],
    "materials": [
        {
            "name": "TOP_001-effect",
            "pbrMetallicRoughness": {
                "baseColorTexture": {
                    "index": 0
                },
                "metallicFactor": 0.0
            },
            "normalTexture": {
                "index": 1
            },
            "emissiveFactor": [
                0.0,
                0.0,
                0.0
            ]
        },
        {
            "name": "intelligent_controller-effect",
            "pbrMetallicRoughness": {
                "baseColorTexture": {
                    "index": 2
                },
                "metallicFactor": 0.0
            },
            "normalTexture": {
                "index": 3
            },
            "emissiveFactor": [
                0.0,
                0.0,
                0.0
            ]
        },
        {
            "name": "intelligent_controller-effect",
            "pbrMetallicRoughness": {
                "baseColorTexture": {
                    "index": 4
                },
                "metallicFactor": 0.0
            },
            "normalTexture": {
                "index": 5
            },
            "emissiveFactor": [
                0.0,
                0.0,
                0.0
            ]
        }
    ],
    "textures": [
        {
            "sampler": 0,
            "source": 0
        },
        {
            "sampler": 0,
            "source": 1
        },
        {
            "sampler": 1,
            "source": 2
        },
        {
            "sampler": 1,
            "source": 3
        },
        {
            "sampler": 2,
            "source": 4
        },
        {
            "sampler": 2,
            "source": 5
        }
    ],
    "samplers": [
        {
            "magFilter": 9729,
            "minFilter": 9986,
            "wrapS": 10497,
            "wrapT": 10497
        },
        {
            "magFilter": 9729,
            "minFilter": 9986,
            "wrapS": 10497,
            "wrapT": 10497
        },
        {
            "magFilter": 9729,
            "minFilter": 9986,
            "wrapS": 10497,
            "wrapT": 10497
        }
    ],
    "images": [
        {
            "uri": "TOP_Base_Color.png"
        },
        {
            "uri": "TOP_Normal_OpenGL.png"
        },
        {
            "uri": "TOP_Base_Color.png"
        },
        {
            "uri": "TOP_Normal_OpenGL.png"
        },
        {
            "uri": "TOP_Base_Color.png"
        },
        {
            "uri": "TOP_Normal_OpenGL.png"
        }
    ],
    "buffers": [
        {
            "byteLength": 97968,
            "uri": "data:application/octet-stream;base64,"
        }
    ]
}