{
    "asset": {
        "version": "2.0"
    },
    "bufferViews": [
        {
            "buffer": 0,
            "byteLength": 1656,
            "byteOffset": 0
        },
        {
            "buffer": 0,
            "byteLength": 4032,
            "byteOffset": 1656
        },
        {
            "buffer": 0,
            "byteLength": 4032,
            "byteOffset": 5688
        },
        {
            "buffer": 0,
            "byteLength": 4032,
            "byteOffset": 9720
        },
        {
            "buffer": 0,
            "byteLength": 600,
            "byteOffset": 13752
        },
        {
            "buffer": 0,
            "byteLength": 2328,
            "byteOffset": 14352
        },
        {
            "buffer": 0,
            "byteLength": 2328,
            "byteOffset": 16680
        }
    ],
    "accessors": [
        {
            "bufferView": 0,
            "count": 828,
            "componentType": 5123,
            "type": "SCALAR"
        },
        {
            "bufferView": 1,
            "count": 336,
            "componentType": 5126,
            "type": "VEC3",
            "min": [
                0.0,
                0.0,
                0.0
            ],
            "max": [
                1.0,
                1.0,
                1.0
            ]
        },
        {
            "bufferView": 2,
            "count": 336,
            "componentType": 5126,
            "type": "VEC3",
            "min": [
                -1.0,
                -1.0,
                -1.0
            ],
            "max": [
                1.0,
                1.0,
                1.0
            ]
        },
        {
            "bufferView": 3,
            "count": 336,
            "componentType": 5126,
            "type": "VEC3",
            "min": [
                -0.009956300258636475,
                -0.029817810282111168,
                -0.01783251017332077
            ],
            "max": [
                0.00461310101673007,
                0.02994190901517868,
                0.017912259325385094
            ]
        },
        {
            "bufferView": 4,
            "count": 300,
            "componentType": 5123,
            "type": "SCALAR"
        },
        {
            "bufferView": 5,
            "count": 194,
            "componentType": 5126,
            "type": "VEC3",
            "min": [
                0.9927533864974976,
                -0.10740630328655243,
                -0.11976359784603119
            ],
            "max": [
                1.0,
                0.0635598823428154,
                0.0826798602938652
            ]
        },
        {
            "bufferView": 6,
            "count": 194,
            "componentType": 5126,
            "type": "VEC3",
            "min": [
                -0.0006098269950598478,
                -0.025304969400167465,
                -0.014012149535119534
            ],
            "max": [
                0.0005518129910342395,
                0.025675229728221893,
                0.013977999798953533
            ]
        }
    ],
    "meshes": [
        {
            "primitives": [
                {
                    "indices": 0,
                    "material": 0,
                    "mode": 4,
                    "attributes": {
                        "COLOR_0": 1,
                        "NORMAL": 2,
                        "POSITION": 3
                    }
                }
            ],
            "name": "front_hit_sensor"
        },
        {
            "primitives": [
                {
                    "indices": 4,
                    "material": 1,
                    "mode": 4,
                    "attributes": {
                        "NORMAL": 5,
                        "POSITION": 6
                    }
                }
            ],
            "name": "front_led"
        }
    ],
    "nodes": [
        {
            "name": "root",
            "children": [
                1
            ],
            "rotation": [
                -0.7071067812,
                0,
                0,
                0.7071067812
            ]
        },
        {
            "name": "_hit_sensor_link",
            "children": [
                2,
                5
            ]
        },
        {
            "name": "_hit_sensor_link/visual0",
            "children": [
                3
            ]
        },
        {
            "name": "Z_UP",
            "children": [
                4
            ]
        },
        {
            "name": "front_hit_sensor",
            "mesh": 0
        },
        {
            "name": "_led_link",
            "children": [
                6
            ],
            "matrix": [
                1.0,
                0.0,
                -0.0,
                0.0,
                0.0,
                1.0,
                0.0,
                0.0,
                0.0,
                -0.0,
                1.0,
                0.0,
                0.0087428,
                -0.0012841,
                3.75e-05,
                1.0
            ]
        },
        {
            "name": "_led_link/visual0",
            "children": [
                7
            ]
        },
        {
            "name": "Z_UP",
            "children": [
                8
            ]
        },
        {
            "name": "front_led",
            "mesh": 1
        }
    ],
    "scene": 0,
    "scenes": [
        {
            "nodes": [
                0
            ],
            "name": "robot_led"
        }
    ],
    "materials": [
        {
            "name": "hit_detector-effect",
            "pbrMetallicRoughness": {
                "baseColorFactor": [
                    0.16978460550308228,
                    0.16978460550308228,
                    0.16978460550308228,
                    1.0
                ],
                "metallicFactor": 0.0
            },
            "emissiveFactor": [
                0.0,
                0.0,
                0.0
            ]
        },
        {
            "name": "led_light-effect",
            "pbrMetallicRoughness": {
                "baseColorFactor": [
                    0.0,
                    0.7773585319519043,
                    0.7773582935333252,
                    1.0
                ],
                "metallicFactor": 0.0
            },
            "emissiveFactor": [
                0.0,
                0.0,
                0.0
            ]
        }
    ],
    "buffers": [
        {
            "byteLength": 19008,
            "uri": "data:application/octet-stream;base64,"
        }
    ]
}