{
    "asset": {
        "version": "2.0"
    },
    "bufferViews": [
        {
            "buffer": 0,
            "byteLength": 384,
            "byteOffset": 0
        },
        {
            "buffer": 0,
            "byteLength": 408,
            "byteOffset": 384
        },
        {
            "buffer": 0,
            "byteLength": 4032,
            "byteOffset": 792
        },
        {
            "buffer": 0,
            "byteLength": 6768,
            "byteOffset": 4824
        },
        {
            "buffer": 0,
            "byteLength": 6768,
            "byteOffset": 11592
        },
        {
            "buffer": 0,
            "byteLength": 6768,
            "byteOffset": 18360
        },
        {
            "buffer": 0,
            "byteLength": 11952,
            "byteOffset": 25128
        },
        {
            "buffer": 0,
            "byteLength": 16728,
            "byteOffset": 37080
        },
        {
            "buffer": 0,
            "byteLength": 16728,
            "byteOffset": 53808
        },
        {
            "buffer": 0,
            "byteLength": 16728,
            "byteOffset": 70536
        }
    ],
    "accessors": [
        {
            "bufferView": 0,
            "count": 192,
            "componentType": 5123,
            "type": "SCALAR"
        },
        {
            "bufferView": 1,
            "count": 34,
            "componentType": 5126,
            "type": "VEC3",
            "min": [
                -0.007,
                -0.007,
                -0.0005
            ],
            "max": [
                0.007,
                0.007,
                0.0005
            ]
        },
        {
            "bufferView": 2,
            "count": 2016,
            "componentType": 5123,
            "type": "SCALAR"
        },
        {
            "bufferView": 3,
            "count": 564,
            "componentType": 5126,
            "type": "VEC3",
            "min": [
                1.0,
                1.0,
                1.0
            ],
            "max": [
                1.0,
                1.0,
                1.0
            ]
        },
        {
            "bufferView": 4,
            "count": 564,
            "componentType": 5126,
            "type": "VEC3",
            "min": [
                -0.9962965250015259,
                -0.8163778185844421,
                -0.9958736896514893
            ],
            "max": [
                0.9962984919548035,
                0.8163542151451111,
                0.9958717226982117
            ]
        },
        {
            "bufferView": 5,
            "count": 564,
            "componentType": 5126,
            "type": "VEC3",
            "min": [
                -0.051373180001974106,
                -0.017436020076274872,
                -0.0517495796084404
            ],
            "max": [
                0.050726890563964844,
                0.01794523000717163,
                0.050341058522462845
            ]
        },
        {
            "bufferView": 6,
            "count": 5976,
            "componentType": 5123,
            "type": "SCALAR"
        },
        {
            "bufferView": 7,
            "count": 1394,
            "componentType": 5126,
            "type": "VEC3",
            "min": [
                1.0,
                1.0,
                1.0
            ],
            "max": [
                1.0,
                1.0,
                1.0
            ]
        },
        {
            "bufferView": 8,
            "count": 1394,
            "componentType": 5126,
            "type": "VEC3",
            "min": [
                -0.9899868369102478,
                -0.9999421834945679,
                -0.9899871349334717
            ],
            "max": [
                0.9899876117706299,
                0.9999182224273682,
                0.9899870157241821
            ]
        },
        {
            "bufferView": 9,
            "count": 1394,
            "componentType": 5126,
            "type": "VEC3",
            "min": [
                -0.05072474107146263,
                -0.02242784947156906,
                -0.050539251416921616
            ],
            "max": [
                0.05095237120985985,
                0.022534070536494255,
                0.05092005804181099
            ]
        }
    ],
    "meshes": [
        {
            "primitives": [
                {
                    "indices": 0,
                    "material": 0,
                    "attributes": {
                        "POSITION": 1
                    }
                }
            ]
        },
        {
            "primitives": [
                {
                    "indices": 2,
                    "material": 1,
                    "mode": 4,
                    "attributes": {
                        "COLOR_0": 3,
                        "NORMAL": 4,
                        "POSITION": 5
                    }
                },
                {
                    "indices": 6,
                    "material": 2,
                    "mode": 4,
                    "attributes": {
                        "COLOR_0": 7,
                        "NORMAL": 8,
                        "POSITION": 9
                    }
                }
            ],
            "name": "front_left_wheel"
        }
    ],
    "nodes": [
        {
            "name": "root",
            "children": [
                1
            ],
            "rotation": [
                -0.7071067812,
                0,
                0,
                0.7071067812
            ]
        },
        {
            "name": "NAME_wheel_link",
            "children": [
                2,
                3
            ]
        },
        {
            "name": "NAME_wheel_link/visual0",
            "matrix": [
                1.0,
                0.0,
                -0.0,
                0.0,
                0.0,
                6.123233995736766e-17,
                1.0,
                0.0,
                0.0,
                -1.0,
                6.123233995736766e-17,
                0.0,
                0.0,
                0.0145,
                0.0,
                1.0
            ],
            "mesh": 0
        },
        {
            "name": "NAME_wheel_link/visual1",
            "children": [
                4
            ]
        },
        {
            "name": "Z_UP",
            "children": [
                5
            ]
        },
        {
            "name": "front_left_wheel",
            "mesh": 1
        }
    ],
    "scene": 0,
    "scenes": [
        {
            "nodes": [
                0
            ],
            "name": "robot_wheel"
        }
    ],
    "materials": [
        {
            "name": "bolt",
            "pbrMetallicRoughness": {
                "baseColorFactor": [
                    0.45,
                    0.15,
                    0.0,
                    1.0
                ]
            }
        },
        {
            "name": "wheel_rubber-effect",
            "pbrMetallicRoughness": {
                "baseColorFactor": [
                    0.06401007622480392,
                    0.06401007622480392,
                    0.06401007622480392,
                    1.0
                ],
                "metallicFactor": 0.0
            },
            "emissiveFactor": [
                0.0,
                0.0,
                0.0
            ]
        },
        {
            "name": "wheel_plastic-effect",
            "pbrMetallicRoughness": {
                "baseColorFactor": [
                    0.2739087045192719,
                    0.2739087045192719,
                    0.2739087045192719,
                    1.0
                ],
                "metallicFactor": 0.0
            },
            "emissiveFactor": [
                0.0,
                0.0,
                0.0
            ]
        }
    ],
    "buffers": [
        {
            "byteLength": 87264,
            "uri": "data:application/octet-stream;base64,"
        }
    ]
}